<svg xmlns="http://www.w3.org/2000/svg" viewBox="0 0 800 800" width="800" height="800" role="img"><title>Stefano Doko</title><defs><clipPath id="s"><path d="M229.75425034081377 525.3149217439178Q184.1493345939073 525.3149217439178 150.3473326407823 511.2957579337511Q116.5453306876573 497.27659412358435 97.6678196439807 469.7815748381135Q78.79030860030412 442.28655555264265 77.5967067232068 401.8691848652475H153.3559160680579Q154.84533445627096 421.0886033845428 164.79429718632025 433.955088365798Q174.74325991636954 446.8215733470533 191.36136417260906 453.2356813161965Q207.97946842884858 459.6497892853398 228.92797523856964 459.6497892853398Q249.72871388684985 459.6497892853398 265.2324083571466 453.5747946924812Q280.7361028274434 447.4998000996225 289.3487233411546 436.53573096358537Q297.9613438548658 425.57166182754827 297.9613438548658 411.20793653654573Q297.9613438548658 398.07859607670935 290.24902261823615 389.28748009188865Q282.5367013816066 380.49636410706796 267.9282783661913 374.20209108903106Q253.319855350776 367.90781807099415 232.50403323589558 362.985642401164L190.72936847865984 352.59546881554115Q142.48221542051175 340.8281700595113 115.11974073576448 315.7048507792838Q87.7572660510172 290.5815314990562 87.7572660510172 249.11832709600463Q87.7572660510172 214.78069863543413 106.33896058357803 189.0274772900063Q124.92065511613885 163.27425594457844 157.18994181588192 148.97966710033032Q189.459228515625 134.6850782560822 230.72857379273282 134.6850782560822Q272.90073225802223 134.6850782560822 304.2672057695837 149.117379617371Q335.6336792811452 163.5496809786598 353.16465236996646 189.12943467517826Q370.69562545878773 214.7091883716967 371.30262213585365 248.0724933803482H296.0484520828964Q293.83471597761115 225.23148627569213 276.47944426056523 212.6735274551699Q259.1241725435193 200.11556863464767 230.02464755269506 200.11556863464767Q210.22365165556837 200.11556863464767 196.2093755734847 205.80801289193585Q182.195099491401 211.50045714922402 174.88572006737627 221.4749792726248Q167.5763406433515 231.4495013960256 167.5763406433515 244.20648725880875Q167.5763406433515 258.1774664757236 176.0895176829908 267.3995975776007Q184.60269472263005 276.62172867947777 198.53275089135906 282.41613032193794Q212.4628070600881 288.2105319643981 228.438019413276 292.03603532010277L262.71978145317746 300.42672340341863Q286.6976834495596 305.88438548657723 307.3910166081166 315.091012839503Q328.08434976667365 324.29764019242873 343.6082956198878 337.67153828256085Q359.132241473102 351.04543637269296 367.7677673749476 369.3491919600724Q376.4032932767932 387.6529475474518 376.4032932767932 411.55989965656465Q376.4032932767932 446.1168065423134 358.9692497509438 471.7298014596005Q341.5352062250944 497.34279637688763 308.7481705838402 511.3288590604027Q275.961134942586 525.3149217439178 229.75425034081377 525.3149217439178Z"/></clipPath><clipPath id="d"><path d="M540.139373164849 520.0H441.7170918099832V452.91695941694627H536.5281204121225Q573.1666390847839 452.91695941694627 597.9969359532298 439.9432090400849Q622.8272328216757 426.9694586632236 635.3953873807152 399.6678782213454Q647.9635419397546 372.36629777946723 647.9635419397546 329.7857493970218Q647.9635419397546 287.3021305775482 635.3163353836776 260.1765316956795Q622.6691288276006 233.0509328138108 598.0326910850986 220.06698669843223Q573.3962533425964 207.08304058305367 536.9873489277475 207.08304058305367H439.9522483876887V139.99999999999994H541.5421978227243Q598.7920634634543 139.99999999999994 639.9161544902213 162.7668428357015Q681.0402455169883 185.53368567140308 703.25107036821 228.06562917824556Q725.4618952194317 270.59757268508804 725.4618952194317 329.7857493970218Q725.4618952194317 389.07085567192746 703.2612661067271 431.72012021877623Q681.0606369940226 474.369384765625 639.546313804268 497.1846923828125Q598.0319906145135 520.0 540.139373164849 520.0ZM484.46495926620173 139.99999999999994V520.0H406.53810478056835V139.99999999999994Z"/></clipPath></defs><g clip-path="url(#s)" fill="#141414"><rect x="80" y="136.0" width="640" height="11"/><rect x="80" y="155.0" width="640" height="11"/><rect x="80" y="174.0" width="640" height="11"/><rect x="80" y="193.0" width="640" height="11"/><rect x="80" y="212.0" width="640" height="11"/><rect x="80" y="231.0" width="640" height="11"/><rect x="80" y="250.0" width="640" height="11"/><rect x="80" y="269.0" width="640" height="11"/><rect x="80" y="288.0" width="640" height="11"/><rect x="80" y="307.0" width="640" height="11"/><rect x="80" y="326.0" width="640" height="11"/><rect x="80" y="345.0" width="640" height="11"/><rect x="80" y="364.0" width="640" height="11"/><rect x="80" y="383.0" width="640" height="11"/><rect x="80" y="402.0" width="640" height="11"/><rect x="80" y="421.0" width="640" height="11"/><rect x="80" y="440.0" width="640" height="11"/><rect x="80" y="459.0" width="640" height="11"/><rect x="80" y="478.0" width="640" height="11"/><rect x="80" y="497.0" width="640" height="11"/><rect x="80" y="516.0" width="640" height="11"/></g><g clip-path="url(#d)" fill="#E23B2E"><rect x="80" y="136.0" width="640" height="11"/><rect x="80" y="155.0" width="640" height="11"/><rect x="80" y="174.0" width="640" height="11"/><rect x="80" y="193.0" width="640" height="11"/><rect x="80" y="212.0" width="640" height="11"/><rect x="80" y="231.0" width="640" height="11"/><rect x="80" y="250.0" width="640" height="11"/><rect x="80" y="269.0" width="640" height="11"/><rect x="80" y="288.0" width="640" height="11"/><rect x="80" y="307.0" width="640" height="11"/><rect x="80" y="326.0" width="640" height="11"/><rect x="80" y="345.0" width="640" height="11"/><rect x="80" y="364.0" width="640" height="11"/><rect x="80" y="383.0" width="640" height="11"/><rect x="80" y="402.0" width="640" height="11"/><rect x="80" y="421.0" width="640" height="11"/><rect x="80" y="440.0" width="640" height="11"/><rect x="80" y="459.0" width="640" height="11"/><rect x="80" y="478.0" width="640" height="11"/><rect x="80" y="497.0" width="640" height="11"/><rect x="80" y="516.0" width="640" height="11"/></g><path fill="#141414" d="M275.19167260646816 700.5276575088501Q271.6050762367248 700.5276575088501 268.95863501548763 699.3892013430595Q266.31219379425045 698.250745177269 264.82246927738186 696.1394798159599Q263.33274476051326 694.0282144546509 263.17032162666317 691.1029117107391H268.0906434488296Q268.24705032825466 692.8457267284393 269.2282446455955 693.9876224398613Q270.20943896293636 695.1295181512833 271.77178601741787 695.6891865134239Q273.3341330718994 696.2488548755646 275.16847042560573 696.2488548755646Q277.1991792154312 696.2488548755646 278.78752480268474 695.6056100130081Q280.3758703899383 694.9623651504517 281.29089377641674 693.7951140999794Q282.20591716289516 692.6278630495071 282.20591716289516 691.0930126905441Q282.20591716289516 689.6930848360062 281.4092735481262 688.801695048809Q280.6126299333572 687.9103052616119 279.2427833509445 687.3181946277618Q277.87293676853176 686.7260839939117 276.14258567810055 686.2727628946304L272.3914090824127 685.2505333423615Q268.45848206996914 684.1896334886551 266.2578396630287 682.1234821677208Q264.0571972560882 680.0573308467865 264.0571972560882 676.7732335329056Q264.0571972560882 674.0043298006058 265.55293802738186 671.9276520013809Q267.0486787986755 669.8509742021561 269.6162733864784 668.704783976078Q272.18386797428127 667.55859375 275.4052299690246 667.55859375Q278.6949121189117 667.55859375 281.19418655157085 668.7086510062218Q283.69346098423 669.8587082624435 285.1238897275924 671.8589004278183Q286.55431847095485 673.859092593193 286.62865488052364 676.4144389629364H281.8514210414886Q281.6030604076385 674.211855173111 279.81233106374737 673.007008433342Q278.0216017198562 671.802161693573 275.29952589988704 671.802161693573Q273.36850492477413 671.802161693573 271.9365662169456 672.4131799936295Q270.5046275091171 673.0241982936859 269.7264601421356 674.0848863720894Q268.9482927751541 675.1455744504929 268.9482927751541 676.5064005851746Q268.9482927751541 678.0158995389938 269.8820081186294 678.9551997184753Q270.81572346210476 679.8944998979568 272.1593597364425 680.4367666244507Q273.5029960107803 680.9790333509445 274.7250247430801 681.3012989759445L277.8217868041992 682.1241528987885Q279.35447220325466 682.5065732002258 280.97396187305446 683.1661411523819Q282.59345154285427 683.825709104538 283.97468350648876 684.8672698736191Q285.35591547012325 685.9088306427002 286.20712892532345 687.4468969702721Q287.05834238052364 688.9849632978439 287.05834238052364 691.1458647251129Q287.05834238052364 693.8636342287064 285.65928129673 695.9865046143532Q284.26022021293636 698.109375 281.60647241592403 699.318516254425Q278.9527246189117 700.5276575088501 275.19167260646816 700.5276575088501Z M302.34489701271053 675.98046875V679.8227126598358H289.31593749999996V675.98046875ZM292.8247697162628 670.265625H297.55043790817257V693.5027061700821Q297.55043790817257 694.9593530893326 298.15737346887585 695.634824514389Q298.7643090295791 696.3102959394455 300.16982172012325 696.3102959394455Q300.538923125267 696.3102959394455 301.1391953039169 696.2224249243736Q301.7394674825668 696.1345539093018 302.1695864009857 696.0486164093018L303.0070456075668 699.8362904787064Q302.24693487167355 700.0859375 301.38563029050823 700.1991599202156Q300.5243257093429 700.3123823404312 299.6988990116119 700.3123823404312Q296.4173823404312 700.3123823404312 294.621076028347 698.6320908665657Q292.8247697162628 696.9517993927002 292.8247697162628 693.8924291133881Z M316.52202967643734 700.500156879425Q312.9758214139938 700.500156879425 310.40500298976895 698.9668164849281Q307.8341845655441 697.4334760904312 306.44865808725353 694.6619917154312Q305.063131608963 691.8905073404312 305.063131608963 688.1603915691376Q305.063131608963 684.4612120389938 306.424165585041 681.6525594592094Q307.78519956111904 678.843906879425 310.2758810305595 677.2617971897125Q312.76656249999996 675.6796875 316.11339513301846 675.6796875Q318.1724516534805 675.6796875 320.0927225732803 676.3521468639374Q322.0129934930801 677.0246062278748 323.53730950593945 678.4666360616684Q325.0616255187988 679.908665895462 325.9523681783676 682.2036269903183Q326.84311083793636 684.4985880851746 326.84311083793636 687.7474585771561V689.4245262145996H307.69195941925045V685.8959431648254H324.4072267198562L322.2003680849075 687.0603978633881Q322.2003680849075 684.859531879425 321.5152290844917 683.1734319925308Q320.8300900840759 681.4873321056366 319.4812964582443 680.5381486415863Q318.1325028324127 679.588965177536 316.1288632535934 679.588965177536Q314.12522367477413 679.588965177536 312.7059606695175 680.5557659864426Q311.2866976642608 681.5225667953491 310.5398979568481 683.1029626131058Q309.7930982494354 684.6833584308624 309.7930982494354 686.5494948625565V688.947571516037Q309.7930982494354 691.4182825088501 310.6415192866325 693.1297338008881Q311.4899403238296 694.841185092926 313.02156684637066 695.7160321474075Q314.5531933689117 696.590879201889 316.5705832624435 696.590879201889Q317.89187625885006 696.590879201889 318.97275839090344 696.2116788029671Q320.0536405229568 695.8324784040451 320.83352569580074 695.0710694789886Q321.6134108686447 694.3096605539322 322.02977947235104 693.1855939626694L326.46412614822384 694.2323120832443Q325.89779833793636 696.0988720655441 324.5309638166427 697.5106088519096Q323.1641292953491 698.9223456382751 321.13256947040554 699.7112512588501Q319.101009645462 700.500156879425 316.52202967643734 700.500156879425Z M343.4775962591171 675.98046875V679.8227126598358H328.82656249999997V675.98046875ZM333.390709733963 700.0V673.2317394018173Q333.390709733963 670.9892067909241 334.38178340196606 669.4921796321869Q335.37285706996914 667.9951524734497 337.0069559574127 667.2397637367249Q338.6410548448562 666.484375 340.5398374557495 666.484375Q341.96510884761807 666.484375 342.9853970170021 666.7157614827156Q344.0056851863861 666.9471479654312 344.4895111083984 667.1366403102875L343.3843561172485 670.9634160995483Q343.0526386260986 670.8521271944046 342.5460380077362 670.7309550046921Q342.03943738937375 670.6097828149796 341.2810365915298 670.6097828149796Q339.60224328041073 670.6097828149796 338.855443572998 671.4513286948204Q338.1086438655853 672.2928745746613 338.1086438655853 673.874560713768V700.0Z M353.7970011568069 700.5276575088501Q351.5157903766632 700.5276575088501 349.6728600597381 699.6856841444969Q347.8299297428131 698.8437107801437 346.75356176853177 697.2087490558624Q345.67719379425046 695.5737873315811 345.67719379425046 693.2066390514374Q345.67719379425046 691.1596071720123 346.4665308332443 689.8512095212936Q347.2558678722381 688.542811870575 348.5911229586601 687.7745317220688Q349.92637804508206 687.0062515735626 351.5710073447227 686.6197485327721Q353.21563664436337 686.2332454919815 354.926221165657 686.0338698625565Q357.0514564847946 685.7777751684189 358.3798364138603 685.6157834529877Q359.708216342926 685.4537917375565 360.3441546297073 685.0788897871971Q360.9800929164886 684.7039878368378 360.9800929164886 683.8579317331314V683.7367595434189Q360.9800929164886 682.3914015293121 360.46210298299786 681.4596197009087Q359.9441130495071 680.5278378725052 358.9197342729568 680.0291830897331Q357.8953554964065 679.5305283069611 356.3703884220123 679.5305283069611Q354.8140536880493 679.5305283069611 353.68998709678647 680.0134992599487Q352.56592050552365 680.4964702129364 351.8612306451797 681.2421953082085Q351.1565407848358 681.9879204034805 350.8123593664169 682.8064758777618L346.36469379425046 681.6630741357803Q347.18411210536954 679.5026041269302 348.7099341487884 678.1918454766273Q350.2357561922073 676.8810868263245 352.20952234029767 676.2803871631622Q354.18328848838803 675.6796875 356.3055038785934 675.6796875Q357.7522517776489 675.6796875 359.38506034374234 676.0257984995842Q361.0178689098358 676.3719094991684 362.45431390762326 677.2699548006058Q363.89075890541073 678.1680001020432 364.79826000690457 679.8081191778183Q365.7057611083984 681.4482382535934 365.7057611083984 684.0538717508316V700.0H361.1334877347946V696.7111728191376H360.89114335536954Q360.42493477821347 697.6418721675873 359.5013223624229 698.5218726396561Q358.57770994663235 699.4018731117249 357.1653260326385 699.9647653102875Q355.7529421186447 700.5276575088501 353.7970011568069 700.5276575088501ZM354.84585276603696 696.744274020195Q356.7854706382751 696.744274020195 358.1576821541786 695.9837239980698Q359.52989367008206 695.2231739759445 360.2627273535728 693.9848103523254Q360.99556103706357 692.7464467287064 360.99556103706357 691.3512487411499V688.2647935152054Q360.7398977613449 688.5170211791992 360.0184494590759 688.7252054810524Q359.2970011568069 688.9333897829056 358.38090315818783 689.0936636924744Q357.46480515956875 689.2539376020432 356.5976921653747 689.3663011193275Q355.7305791711807 689.4786646366119 355.17971948146817 689.5469847917557Q353.85284164905545 689.7149927616119 352.74338427543637 690.1223369836807Q351.6339269018173 690.5296812057495 350.98079875469205 691.2812068462372Q350.3276706075668 692.0327324867249 350.3276706075668 693.272386431694Q350.3276706075668 694.4140703678131 350.91419640541073 695.1842879652977Q351.50072220325467 695.9545055627823 352.5173669195175 696.3493897914886Q353.5340116357803 696.744274020195 354.84585276603696 696.744274020195Z M376.34825512886044 685.767884016037V700.0H371.62258693695065V675.98046875H376.12825796127316L376.1768115472793 681.8607398271561H375.6899735641479Q376.7354052972793 678.6389385461807 378.7308754634857 677.1593130230904Q380.72634562969205 675.6796875 383.55927106857297 675.6796875Q386.0102076244354 675.6796875 387.84604707479474 676.707713663578Q389.6818865251541 677.7357398271561 390.70432785272595 679.7503294348717Q391.7267691802978 681.7649190425873 391.7267691802978 684.7383596897125V700.0H387.00110098838803V685.3274503946304Q387.00110098838803 682.7338494062424 385.64951494455335 681.2640992999077Q384.29792890071866 679.794349193573 381.9428052616119 679.794349193573Q380.3439331960678 679.794349193573 379.07527652502057 680.4940974116325Q377.80661985397336 681.1938456296921 377.0774374914169 682.5269554257393Q376.34825512886044 683.8600652217865 376.34825512886044 685.767884016037Z M407.75155809402463 700.500156879425Q404.3699221897125 700.500156879425 401.85002228498456 698.9513483643532Q399.3301223802566 697.4025398492813 397.9377207446098 694.6115046143532Q396.545319108963 691.820469379425 396.545319108963 688.125156879425Q396.545319108963 684.3769923448563 397.9377207446098 681.5771484375Q399.3301223802566 678.7773045301437 401.85002228498456 677.2284960150719Q404.3699221897125 675.6796875 407.75155809402463 675.6796875Q411.150811343193 675.6796875 413.67565289020536 677.2284960150719Q416.2004944372177 678.7773045301437 417.5928960728645 681.5771484375Q418.9852977085113 684.3769923448563 418.9852977085113 688.125156879425Q418.9852977085113 691.820469379425 417.5928960728645 694.6115046143532Q416.2004944372177 697.4025398492813 413.67565289020536 698.9513483643532Q411.150811343193 700.500156879425 407.75155809402463 700.500156879425ZM407.75155809402463 696.5036553144455Q409.9434036302566 696.5036553144455 411.37448343515393 695.3542373180389Q412.80556324005124 694.2048193216324 413.4995109128952 692.298290848732Q414.1934585857391 690.3917623758316 414.1934585857391 688.1174228191376Q414.1934585857391 685.8215988874435 413.4995109128952 683.9032536149025Q412.80556324005124 681.9849083423615 411.37448343515393 680.8305487036705Q409.9434036302566 679.6761890649796 407.75155809402463 679.6761890649796Q405.57346287250516 679.6761890649796 404.15806689739225 680.8305487036705Q402.74267092227933 681.9849083423615 402.0487232494354 683.8944449424744Q401.35477557659146 685.8039815425873 401.35477557659146 688.1174228191376Q401.35477557659146 690.3917623758316 402.0487232494354 692.298290848732Q402.74267092227933 694.2048193216324 404.15806689739225 695.3542373180389Q405.57346287250516 696.5036553144455 407.75155809402463 696.5036553144455Z M445.8540976285934 700.0H437.934105181694V695.7100276947021H445.58081700801847Q449.2164141178131 695.7100276947021 451.62524869441984 694.3502761721611Q454.0340832710266 692.99052464962 455.2320548534393 690.3619046807289Q456.430026435852 687.7332847118378 456.430026435852 683.945155620575Q456.430026435852 680.1883941888809 455.2369964957237 677.5862002372742Q454.0439665555954 674.9840062856674 451.6978672981262 673.6311299204826Q449.351768040657 672.2782535552979 445.85152485370634 672.2782535552979H437.7699642419815V667.98828125H446.165625Q450.89562311172483 667.98828125 454.26329692602155 669.9023241400719Q457.6309707403183 671.8163670301437 459.43630143404005 675.3954489827156Q461.2416321277618 678.9745309352875 461.2416321277618 683.945155620575Q461.2416321277618 688.9471479654312 459.4294262766838 692.5438472628593Q457.61722042560575 696.1405465602875 454.1741355895996 698.0702732801437Q450.7310507535934 700.0 445.8540976285934 700.0ZM440.3519326686859 667.98828125V700.0H435.442356967926V667.98828125Z M476.4921049690247 700.500156879425Q473.11046906471256 700.500156879425 470.5905691599846 698.9513483643532Q468.0706692552567 697.4025398492813 466.67826761960987 694.6115046143532Q465.28586598396305 691.820469379425 465.28586598396305 688.125156879425Q465.28586598396305 684.3769923448563 466.67826761960987 681.5771484375Q468.0706692552567 678.7773045301437 470.5905691599846 677.2284960150719Q473.11046906471256 675.6796875 476.4921049690247 675.6796875Q479.8913582181931 675.6796875 482.4161997652054 677.2284960150719Q484.94104131221775 678.7773045301437 486.33344294786457 681.5771484375Q487.7258445835114 684.3769923448563 487.7258445835114 688.125156879425Q487.7258445835114 691.820469379425 486.33344294786457 694.6115046143532Q484.94104131221775 697.4025398492813 482.4161997652054 698.9513483643532Q479.8913582181931 700.500156879425 476.4921049690247 700.500156879425ZM476.4921049690247 696.5036553144455Q478.6839505052567 696.5036553144455 480.115030310154 695.3542373180389Q481.5461101150513 694.2048193216324 482.24005778789524 692.298290848732Q482.9340054607392 690.3917623758316 482.9340054607392 688.1174228191376Q482.9340054607392 685.8215988874435 482.24005778789524 683.9032536149025Q481.5461101150513 681.9849083423615 480.115030310154 680.8305487036705Q478.6839505052567 679.6761890649796 476.4921049690247 679.6761890649796Q474.3140097475052 679.6761890649796 472.8986137723923 680.8305487036705Q471.4832177972794 681.9849083423615 470.78927012443546 683.8944449424744Q470.0953224515915 685.8039815425873 470.0953224515915 688.1174228191376Q470.0953224515915 690.3917623758316 470.78927012443546 692.298290848732Q471.4832177972794 694.2048193216324 472.8986137723923 695.3542373180389Q474.3140097475052 696.5036553144455 476.4921049690247 696.5036553144455Z M496.8975178194046 691.8969314098358V686.1198230981827H497.69544388771055L507.1606328678131 675.98046875H512.837198395729L501.9733994197845 687.6013585329056H501.1802110862732ZM492.52805568695067 700.0V667.98828125H497.25372387886046V700.0ZM507.6517692995071 700.0 499.12158598423 688.6540850400925 502.3897680234909 685.3107116222382 513.4924757671356 700.0Z M525.7996049690247 700.500156879425Q522.4179690647126 700.500156879425 519.8980691599846 698.9513483643532Q517.3781692552567 697.4025398492813 515.9857676196099 694.6115046143532Q514.593365983963 691.820469379425 514.593365983963 688.125156879425Q514.593365983963 684.3769923448563 515.9857676196099 681.5771484375Q517.3781692552567 678.7773045301437 519.8980691599846 677.2284960150719Q522.4179690647126 675.6796875 525.7996049690247 675.6796875Q529.1988582181931 675.6796875 531.7236997652054 677.2284960150719Q534.2485413122178 678.7773045301437 535.6409429478646 681.5771484375Q537.0333445835114 684.3769923448563 537.0333445835114 688.125156879425Q537.0333445835114 691.820469379425 535.6409429478646 694.6115046143532Q534.2485413122178 697.4025398492813 531.7236997652054 698.9513483643532Q529.1988582181931 700.500156879425 525.7996049690247 700.500156879425ZM525.7996049690247 696.5036553144455Q527.9914505052567 696.5036553144455 529.422530310154 695.3542373180389Q530.8536101150513 694.2048193216324 531.5475577878952 692.298290848732Q532.2415054607392 690.3917623758316 532.2415054607392 688.1174228191376Q532.2415054607392 685.8215988874435 531.5475577878952 683.9032536149025Q530.8536101150513 681.9849083423615 529.422530310154 680.8305487036705Q527.9914505052567 679.6761890649796 525.7996049690247 679.6761890649796Q523.6215097475052 679.6761890649796 522.2061137723923 680.8305487036705Q520.7907177972794 681.9849083423615 520.0967701244355 683.8944449424744Q519.4028224515915 685.8039815425873 519.4028224515915 688.1174228191376Q519.4028224515915 690.3917623758316 520.0967701244355 692.298290848732Q520.7907177972794 694.2048193216324 522.2061137723923 695.3542373180389Q523.6215097475052 696.5036553144455 525.7996049690247 696.5036553144455Z"/></svg>
