<svg xmlns="http://www.w3.org/2000/svg" viewBox="0 0 800 800" width="800" height="800" role="img"><title>Stefano Doko</title><rect width="800" height="800" fill="#EFE6D2"/><path fill="#141414" d="M102.8971405386925 472.997105717659Q82.2398431658745 472.997105717659 65.56418538689616 462.29624554514885Q48.88852760791781 451.5953853726387 39.22055885791781 430.909144282341Q29.55259010791781 410.2229031920433 29.55259010791781 380.2361398935318Q29.55259010791781 349.4534194469452 39.51864570975306 328.8477447628975Q49.48470131158831 308.2420700788498 66.11685500144961 297.9198631644249Q82.7490086913109 287.59765625 102.623232460022 287.59765625Q117.92449638843539 287.59765625 128.10648412108424 292.74587616324425Q138.28847185373309 297.8940960764885 144.5436193108559 305.44315949082375Q150.7987667679787 312.992222905159 153.960181927681 320.1754280924797H155.5199758768082V229.912109375H203.83969769477847V470.0H156.31275639534V441.1669334769249H153.960181927681Q150.6247504115105 448.4242632985115 144.25197423100474 455.7429227232933Q137.87919805049899 463.0615821480751 127.79066026806834 468.02934393286705Q117.70212248563769 472.997105717659 102.8971405386925 472.997105717659ZM117.77571604251864 434.26452070474625Q130.12187854051592 434.26452070474625 138.7909300684929 427.47108697891235Q147.4599815964699 420.67765325307846 151.99914426207545 408.5023304820061Q156.538306927681 396.3270077109337 156.538306927681 380.087890625Q156.538306927681 363.6747571825981 152.0362065792084 351.6412419080734Q147.5341062307358 339.60772663354874 138.8650547027588 332.96898394823074Q130.19600317478182 326.33024126291275 117.77571604251864 326.33024126291275Q105.13305500745776 326.33024126291275 96.51394934058192 333.19135785102844Q87.89484367370608 340.05247443914413 83.51681382060053 352.1601143479347Q79.13878396749499 364.2677542567253 79.13878396749499 380.087890625Q79.13878396749499 395.8951434493065 83.55387613773348 408.1510326266289Q87.96896830797198 420.40692180395126 96.62513629198077 427.33572125434875Q105.28130427598956 434.26452070474625 117.77571604251864 434.26452070474625Z M315.78222508430486 473.5191547870636Q288.67979223728184 473.5191547870636 268.8814584434033 461.87408819794655Q249.0831246495247 450.2290216088295 238.37908784747125 429.32526007294655Q227.6750510454178 408.4214985370636 227.6750510454178 380.7066547870636Q227.6750510454178 352.7694371342659 238.37908784747125 331.82861328125Q249.0831246495247 310.8877894282341 268.8814584434033 299.24272283911705Q288.67979223728184 287.59765625 315.78222508430486 287.59765625Q342.95878256559376 287.59765625 362.70717049837117 299.24272283911705Q382.4555584311486 310.8877894282341 393.159595233202 331.82861328125Q403.8636320352555 352.7694371342659 403.8636320352555 380.7066547870636Q403.8636320352555 408.4214985370636 393.159595233202 429.32526007294655Q382.4555584311486 450.2290216088295 362.70717049837117 461.87408819794655Q342.95878256559376 473.5191547870636 315.78222508430486 473.5191547870636ZM315.78222508430486 435.48263520002365Q328.68273402452473 435.48263520002365 337.3566390097142 428.31213653087616Q346.0305439949036 421.14163786172867 350.3650697588921 408.6988487839699Q354.6995955228806 396.2560597062111 354.6995955228806 380.5326384305954Q354.6995955228806 364.6480843424797 350.3650697588921 352.26168289780617Q346.0305439949036 339.87528145313263 337.3566390097142 332.7547286450863Q328.68273402452473 325.63417583703995 315.78222508430486 325.63417583703995Q302.8688326001168 325.63417583703995 294.2255481600762 332.7547286450863Q285.5822637200356 339.87528145313263 281.2477379560471 352.2246205806732Q276.9132121920586 364.5739597082138 276.9132121920586 380.5326384305954Q276.9132121920586 396.2560597062111 281.2477379560471 408.6988487839699Q285.5822637200356 421.14163786172867 294.2255481600762 428.31213653087616Q302.8688326001168 435.48263520002365 315.78222508430486 435.48263520002365Z M471.49092828035356 417.23173797130585V359.11203533411026H478.80949919223787L537.7332824945449 289.853515625H593.5907724976539L515.7666236639022 380.2004888653755H504.36519865989686ZM427.6409209251404 470.0V229.912109375H475.96064274311067V470.0ZM540.0826803326606 470.0 486.08324323892595 390.99621027708054 518.3673391222953 356.6980427503586 597.0552164793014 470.0Z M682.3787094593048 473.5191547870636Q655.2762766122818 473.5191547870636 635.4779428184032 461.87408819794655Q615.6796090245247 450.2290216088295 604.9755722224712 429.32526007294655Q594.2715354204178 408.4214985370636 594.2715354204178 380.7066547870636Q594.2715354204178 352.7694371342659 604.9755722224712 331.82861328125Q615.6796090245247 310.8877894282341 635.4779428184032 299.24272283911705Q655.2762766122818 287.59765625 682.3787094593048 287.59765625Q709.5552669405937 287.59765625 729.3036548733711 299.24272283911705Q749.0520428061485 310.8877894282341 759.756079608202 331.82861328125Q770.4601164102554 352.7694371342659 770.4601164102554 380.7066547870636Q770.4601164102554 408.4214985370636 759.756079608202 429.32526007294655Q749.0520428061485 450.2290216088295 729.3036548733711 461.87408819794655Q709.5552669405937 473.5191547870636 682.3787094593048 473.5191547870636ZM682.3787094593048 435.48263520002365Q695.2792183995247 435.48263520002365 703.9531233847141 428.31213653087616Q712.6270283699035 421.14163786172867 716.961554133892 408.6988487839699Q721.2960798978805 396.2560597062111 721.2960798978805 380.5326384305954Q721.2960798978805 364.6480843424797 716.961554133892 352.26168289780617Q712.6270283699035 339.87528145313263 703.9531233847141 332.7547286450863Q695.2792183995247 325.63417583703995 682.3787094593048 325.63417583703995Q669.4653169751167 325.63417583703995 660.8220325350761 332.7547286450863Q652.1787480950355 339.87528145313263 647.844222331047 352.2246205806732Q643.5096965670585 364.5739597082138 643.5096965670585 380.5326384305954Q643.5096965670585 396.2560597062111 647.844222331047 408.6988487839699Q652.1787480950355 421.14163786172867 660.8220325350761 428.31213653087616Q669.4653169751167 435.48263520002365 682.3787094593048 435.48263520002365Z"/><circle cx="333.4" cy="363.8" r="30.0" fill="#E23B2E"/><circle cx="700.0" cy="363.8" r="30.0" fill="#E23B2E"/><path fill="#141414" d="M320.548660159111 183.19109449386593Q317.4596436023712 183.19109449386593 315.0637892484665 182.2970923542976Q312.66793489456177 181.40309021472927 311.1290118098259 179.6656122565269Q309.59008872509 177.92813429832455 309.08684635162354 175.42665252685543L314.3472386598587 174.32622525691983Q314.93833315372467 176.5433394670486 316.52855199575424 177.6008603930473Q318.1187708377838 178.658381319046 320.5892814397812 178.658381319046Q323.2949172258377 178.658381319046 324.89275604486465 177.53509411811825Q326.4905948638916 176.41180691719052 326.4905948638916 174.8198082208633Q326.4905948638916 173.46597526073452 325.50569075345993 172.57755366563794Q324.52078664302826 171.68913207054135 322.4910569190979 171.2387010812759L317.7135591506958 170.15807459354397Q313.77192187309265 169.2668627262115 311.84274423122406 167.31787965297696Q309.91356658935547 165.3688965797424 309.91356658935547 162.30882105827328Q309.91356658935547 159.7753484010696 311.3235064148903 157.8748615145683Q312.7334462404251 155.97437462806698 315.2080124616623 154.91609356403347Q317.6825786828995 153.85781249999997 320.8914382457733 153.85781249999997Q323.9621742963791 153.85781249999997 326.1455084681511 154.752069568634Q328.3288426399231 155.64632663726803 329.68876135349274 157.23501590490338Q331.0486800670624 158.82370517253872 331.6468846797943 160.9346774578094L326.6353186368942 162.042214846611Q326.0970355272293 160.54162797927853 324.78205329179764 159.40488532781598Q323.46707105636597 158.26814267635342 320.9488197565079 158.26814267635342Q318.6291233301163 158.26814267635342 317.0800356268883 159.31043294668194Q315.5309479236603 160.35272321701046 315.5309479236603 161.97011253833767Q315.5309479236603 163.37523660659787 316.56612807512283 164.2565480828285Q317.6013082265854 165.1378595590591 319.9296350479126 165.667002415657L324.4902881383896 166.682627415657Q328.43649554252625 167.56926915645596 330.3425676226616 169.4794061541557Q332.24863970279694 171.38954315185543 332.24863970279694 174.350596165657Q332.24863970279694 176.9394201993942 330.7663379907608 178.93207440376278Q329.28403627872467 180.92472860813137 326.6457009911537 182.05791155099865Q324.00736570358276 183.19109449386593 320.548660159111 183.19109449386593Z M350.5121190547943 154.21328124999997V158.7541149616241H335.1142578125V154.21328124999997ZM339.2610595226288 147.45937499999997H344.8459401130676V174.9213800191879Q344.8459401130676 176.64287183284756 345.5632275938988 177.44115624427792Q346.2805150747299 178.23944065570828 347.94157552719116 178.23944065570828Q348.37778627872467 178.23944065570828 349.08719885349274 178.13559309244152Q349.7966114282608 178.03174552917477 350.3049337863922 177.93018302917477L351.2946583032608 182.4065251111984Q350.39634561538696 182.70156249999997 349.3784402012825 182.83537081480023Q348.36053478717804 182.9691791296005 347.3850305080414 182.9691791296005Q343.5068744421005 182.9691791296005 341.38396698236465 180.98338011503216Q339.2610595226288 178.99758110046383 339.2610595226288 175.38196167945858Z M367.7869122028351 183.19109449386593Q363.59593880176544 183.19109449386593 360.55769884586334 181.3789649367332Q357.51945888996124 179.5668353796005 355.88201850652695 176.2914447546005Q354.24457812309265 173.0160541296005 354.24457812309265 168.60773549079892Q354.24457812309265 164.2359778642654 355.85307282209396 160.91666117906567Q357.4615675210953 157.59734449386593 360.40510016679764 155.72757849693295Q363.3486328125 153.85781249999997 367.3039804697037 153.85781249999997Q369.737410902977 153.85781249999997 372.0068219900131 154.65253720283505Q374.27623307704926 155.44726190567013 376.077697455883 157.1514789819717Q377.8791618347168 158.85569605827328 378.9318577051163 161.56792280673977Q379.98455357551575 164.28014955520626 379.98455357551575 168.1197237730026V170.10171279907223H357.35137462615967V165.93156919479367H377.1057814359665L374.4976757764816 167.30774292945858Q374.4976757764816 164.70671949386593 373.6879660487175 162.71405599117276Q372.87825632095337 160.72139248847958 371.2842274904251 159.59963021278378Q369.69019865989685 158.47786793708798 367.3222609758377 158.47786793708798Q364.95432329177856 158.47786793708798 363.27701246738434 159.62045071125027Q361.5997016429901 160.76303348541256 360.71712017059326 162.6307739973068Q359.8345386981964 164.49851450920102 359.8345386981964 166.70394847393032V169.53803906440731Q359.8345386981964 172.4579702377319 360.837218105793 174.48059449195858Q361.8398975133896 176.50321874618527 363.65000158548355 177.5371289014816Q365.4601056575775 178.57103905677792 367.84429371356964 178.57103905677792Q369.40582180023193 178.57103905677792 370.683227956295 178.12289313077923Q371.9606341123581 177.67474720478054 372.88231658935547 176.77490029335019Q373.80399906635284 175.87505338191983 374.29607105255127 174.54661104679104L379.53666257858276 175.78364155292508Q378.86736607551575 177.9895760774612 377.2520161867142 179.65799227952954Q375.6366662979126 181.32640848159787 373.23573195934296 182.2587514877319Q370.8347976207733 183.19109449386593 367.7869122028351 183.19109449386593Z M400.1634908914566 154.21328124999997V158.7541149616241H382.8486328125V154.21328124999997ZM388.24262499809265 182.59999999999997V150.96478292942044Q388.24262499809265 148.3145171165466 389.41389387845993 146.54530320167538Q390.5851627588272 144.77608928680417 392.51637053489685 143.88335714340207Q394.4475783109665 142.99062499999997 396.69159412384033 142.99062499999997Q398.37600576877594 142.99062499999997 399.58180087804794 143.26408175230023Q400.78759598731995 143.5375385046005 401.35939025878906 143.76148400306698L400.053297996521 148.2840372085571Q399.66126823425293 148.1525139570236 399.0625584125519 148.0093104600906Q398.46384859085083 147.86610696315762 397.56755673885345 147.86610696315762Q395.5835282802582 147.86610696315762 394.7009468078613 148.86066118478772Q393.8183653354645 149.8552154064178 393.8183653354645 151.72448084354397V182.59999999999997Z M412.87915122509 183.2235952377319Q410.1831748485565 183.2235952377319 408.00516629219055 182.2285358071327Q405.8271577358246 181.23347637653347 404.5550864934921 179.30124888420102Q403.28301525115967 177.36902139186856 403.28301525115967 174.57148251533505Q403.28301525115967 172.15226302146908 404.2158681154251 170.60597488880154Q405.14872097969055 169.059686756134 406.72674971818924 168.15171930789944Q408.3047784566879 167.24375185966488 410.24843126535416 166.7869755387306Q412.1920840740204 166.3301992177963 414.21368396282196 166.09457347393032Q416.7253257036209 165.79191610813137 418.2952292561531 165.60047135353085Q419.8651328086853 165.40902659893032 420.61669623851776 164.96596065759655Q421.3682596683502 164.52289471626278 421.3682596683502 163.52301023006436V163.37980673313137Q421.3682596683502 161.78983817100521 420.75608974695206 160.6886414647102Q420.1439198255539 159.5874447584152 418.9332903623581 158.99812546968457Q417.7226608991623 158.40880618095395 415.9204270839691 158.40880618095395Q414.08112239837646 158.40880618095395 412.7526800632477 158.97959003448483Q411.4242377281189 159.5503738880157 410.5914224386215 160.43168536424633Q409.75860714912415 161.31299684047696 409.35184729099274 162.2803805828094L404.09551525115967 160.9290876150131Q405.06391870975494 158.37580487728115 406.86716294288635 156.82672647237774Q408.67040717601776 155.27764806747433 411.0030398964882 154.56773028373715Q413.3356726169586 153.85781249999997 415.8437453508377 153.85781249999997Q417.55353832244873 153.85781249999997 419.48322117328644 154.26685277223584Q421.41290402412415 154.6758930444717 423.11052083969116 155.7372193098068Q424.8081376552582 156.79854557514187 425.8806389570236 158.73686811923977Q426.95314025878906 160.67519066333767 426.95314025878906 163.75457570552823V182.59999999999997H421.5495444536209V178.71320424079892H421.26313745975494Q420.7121636867523 179.81312165260312 419.620621740818 180.8531222105026Q418.5290797948837 181.89312276840207 416.8598988056183 182.55835900306698Q415.19071781635284 183.2235952377319 412.87915122509 183.2235952377319ZM414.11870312690735 178.7523238420486Q416.4109787940979 178.7523238420486 418.0326833128929 177.85349199771878Q419.6543878316879 176.95466015338894 420.5204640030861 175.49113950729367Q421.38654017448425 174.0276188611984 421.38654017448425 172.37874851226803V168.73111960887906Q421.0843926668167 169.0292068481445 420.23177194595337 169.2752428412437Q419.37915122509 169.52127883434292 418.29648995399475 169.7106934547424Q417.2138286828995 169.90010807514187 416.18905878067017 170.0329013228416Q415.16428887844086 170.16569457054135 414.5132728815079 170.24643657207486Q412.945144534111 170.44499144554135 411.63396763801575 170.92639825344082Q410.32279074192047 171.4078050613403 409.55091202259064 172.29597172737118Q408.7790333032608 173.18413839340207 408.7790333032608 174.64918396472927Q408.7790333032608 175.99844679832455 409.4722001552582 176.90870395898816Q410.16536700725555 177.81896111965176 411.36685621738434 178.28564248085019Q412.5683454275131 178.7523238420486 414.11870312690735 178.7523238420486Z M440.0506331920624 165.78022656440731V182.59999999999997H434.46575260162354V154.21328124999997H439.79063653945923L439.8480180501938 161.1626925230026H439.2726640701294Q440.5081743001938 157.35510919094082 442.8664572238922 155.6064608454704Q445.22474014759064 153.85781249999997 448.57274293899536 153.85781249999997Q451.4693043231964 153.85781249999997 453.6389327645302 155.07275251150128Q455.80856120586395 156.2876925230026 457.0169009566307 158.66857115030285Q458.22524070739746 161.04944977760312 458.22524070739746 164.56351599693295V182.59999999999997H452.6403601169586V165.25971410274502Q452.6403601169586 162.1945492982864 451.0430311560631 160.45757189989087Q449.44570219516754 158.72059450149533 446.6623742580414 158.72059450149533Q444.77279818058014 158.72059450149533 443.2734766602516 159.54756966829297Q441.7741551399231 160.3745448350906 440.91239416599274 161.95003823041912Q440.0506331920624 163.52553162574765 440.0506331920624 165.78022656440731Z M477.68362760543823 183.19109449386593Q473.687148809433 183.19109449386593 470.7090852856636 181.36068443059918Q467.7310217618942 179.53027436733242 466.08545619249344 176.23177818059918Q464.43989062309265 172.93328199386593 464.43989062309265 168.56609449386593Q464.43989062309265 164.13644549846646 466.08545619249344 160.82753906249997Q467.7310217618942 157.51863262653347 470.7090852856636 155.68822256326672Q473.687148809433 153.85781249999997 477.68362760543823 153.85781249999997Q481.70092689991 153.85781249999997 484.6848305463791 155.68822256326672Q487.6687341928482 157.51863262653347 489.314299762249 160.82753906249997Q490.9598653316498 164.13644549846646 490.9598653316498 168.56609449386593Q490.9598653316498 172.93328199386593 489.314299762249 176.23177818059918Q487.6687341928482 179.53027436733242 484.6848305463791 181.36068443059918Q481.70092689991 183.19109449386593 477.68362760543823 183.19109449386593ZM477.68362760543823 178.46795628070828Q480.2739905118942 178.46795628070828 481.9652666449547 177.109553194046Q483.65654277801514 175.7511501073837 484.4766627550125 173.49798009395596Q485.2967827320099 171.24481008052823 485.2967827320099 168.55695424079892Q485.2967827320099 165.8437077760696 484.4766627550125 163.57657245397564Q483.65654277801514 161.30943713188168 481.9652666449547 159.94519392251965Q480.2739905118942 158.58095071315762 477.68362760543823 158.58095071315762Q475.1095150709152 158.58095071315762 473.4367743730545 159.94519392251965Q471.7640336751938 161.30943713188168 470.9439136981964 163.5661622047424Q470.12379372119904 165.82288727760312 470.12379372119904 168.55695424079892Q470.12379372119904 171.24481008052823 470.9439136981964 173.49798009395596Q471.7640336751938 175.7511501073837 473.4367743730545 177.109553194046Q475.1095150709152 178.46795628070828 477.68362760543823 178.46795628070828Z"/></svg>
