<svg xmlns="http://www.w3.org/2000/svg" viewBox="0 0 640 640" width="640" height="640" role="img"><title>Stefano Doko</title><rect width="640" height="640" rx="120" fill="#141414"/><rect x="0" y="64.0" width="640" height="10.24" fill="#F7F4EC"/><circle cx="320.0" cy="358.40000000000003" r="211.20000000000002" fill="#E23B2E"/><path fill="#F7F4EC" d="M246.19419481816274 438.8180612835571Q227.43761304907719 438.8180612835571 213.53538336157717 433.05220056365357Q199.63315367407716 427.28633984375006 191.86913144777685 415.9780725435194Q184.1051092214765 404.66980524328864 183.6141996157718 388.04677884857387H214.77276622126678Q215.38534048720638 395.9514222210571 219.47719176919043 401.24320433882133Q223.5690430511745 406.5349864565856 230.40380694064598 409.17300778890524Q237.23857083011745 411.81102912122486 245.85436091505872 411.81102912122486Q254.40937628838088 411.81102912122486 260.7858010288381 409.31247976614935Q267.1622257692953 406.81393041107384 270.7044605978398 402.30458189230285Q274.24669542638424 397.7952333735319 274.24669542638424 391.8876599570051Q274.24669542638424 386.48776953125 271.0747394752517 382.8721223337878Q267.9027835241191 379.25647513632555 261.8945697971896 376.66774002726515Q255.88635607026006 374.07900491820476 247.32513710528522 372.0545917837668L230.143877090604 367.7812774433725Q210.30058483494128 362.9415732644715 199.04683103617867 352.6087487285025Q187.7930772374161 342.2759241925336 187.7930772374161 325.22276290373327Q187.7930772374161 311.1002384909816 195.43543480348154 300.50834518141784Q203.07779236954698 289.91645187185406 216.34964047409815 284.03731318424923Q229.62148857864932 278.15817449664434 246.59491866988253 278.15817449664434Q263.9396615704698 278.15817449664434 276.84019686566694 284.0939521680999Q289.74073216086407 290.02972983955544 296.950944587458 300.55027864408567Q304.16115701405204 311.07082744861583 304.4108051631712 324.7926280096477H273.4599532441275Q272.54947853775167 315.3984824349833 265.41152931113675 310.2335922556628Q258.2735800845218 305.06870207634233 246.30540492197986 305.06870207634233Q238.1615679567953 305.06870207634233 232.39771748227767 307.40991451866614Q226.63386700776005 309.75112696098995 223.62763466191274 313.85349041789016Q220.62140231606543 317.9558538747903 220.62140231606543 323.2026007340604Q220.62140231606543 328.94864389156885 224.12273761388423 332.74156080117456Q227.62407291170302 336.53447771078027 233.35328506564596 338.91762361577184Q239.0824972195889 341.3007695207635 245.65284982026006 342.8741386482802L259.75239725629194 346.32509617239936Q269.6141297489513 348.5697464135906 278.1249709402265 352.35628687604867Q286.63581213150167 356.1428273385068 293.0205659459941 361.6433004561662Q299.4053197604866 367.14377357382557 302.9569752135067 374.67181924024754Q306.50863066652687 382.1998649066695 306.50863066652687 392.03241683095644Q306.50863066652687 406.245126997693 299.33828383871645 416.77934739146394Q292.16793701090603 427.31356778523497 278.68314694169464 433.06581453439605Q265.1983568724832 438.8180612835571 246.19419481816274 438.8180612835571Z M380.1655732082634 436.54400000000004H339.68604292302854V408.953804614094H378.68032197084733Q393.7491661979866 408.953804614094 403.9614752426594 403.61790593278107Q414.1737842873322 398.28200725146814 419.34286781291945 387.0532982933096Q424.5119513385067 375.824589335151 424.5119513385067 358.3118821098994Q424.5119513385067 340.83904048343123 419.3103549747274 329.6827099622484Q414.108758610948 318.5263794410655 403.9761807638423 313.1862874134858Q393.8436029167366 307.84619538590607 378.8691954083473 307.84619538590607H338.96019068938756V280.25600000000003H380.7425328401846Q404.2884986329698 280.25600000000003 421.20218794452603 289.61964298185825Q438.11587725608223 298.98328596371647 447.2508388201552 316.476002771078Q456.3858003842282 333.9687195784396 456.3858003842282 358.3118821098994Q456.3858003842282 382.69491024014263 447.255032166422 400.23587933882135Q438.12426394861575 417.77684843750006 421.0500783099832 427.16042421875005Q403.97589267135066 436.54400000000004 380.1655732082634 436.54400000000004ZM357.26756584144294 280.25600000000003V436.54400000000004H325.21748101552015V280.25600000000003Z"/></svg>
